<?xml version="1.0" standalone="no"?>
<!DOCTYPE svg PUBLIC "-//W3C//DTD SVG 20010904//EN"
 "http://www.w3.org/TR/2001/REC-SVG-20010904/DTD/svg10.dtd">
<svg version="1.0" xmlns="http://www.w3.org/2000/svg"
 width="16.000000pt" height="16.000000pt" viewBox="0 0 16.000000 16.000000"
 preserveAspectRatio="xMidYMid meet">
<metadata>
Created by potrace 1.11, written by Peter Selinger 2001-2013
</metadata>
<g transform="translate(0.000000,16.000000) scale(0.002556,-0.002556)"
fill="#000000" stroke="none">
<path d="M3077 6174 c-1 -1 -56 -4 -122 -8 -66 -3 -134 -8 -150 -10 -17 -3
-50 -7 -75 -10 -127 -15 -307 -53 -460 -98 -398 -116 -806 -340 -1125 -617
-95 -83 -298 -295 -374 -392 -106 -134 -100 -126 -142 -189 -187 -283 -317
-553 -400 -835 -11 -39 -22 -74 -23 -80 -2 -5 -7 -29 -11 -52 -4 -24 -11 -43
-15 -43 -4 0 -7 -8 -7 -17 1 -10 -5 -49 -12 -88 -8 -38 -15 -79 -18 -90 -16
-84 -29 -211 -37 -346 -1 -31 -6 -62 -11 -69 -5 -7 -4 -11 1 -8 5 4 9 -50 10
-125 1 -185 8 -321 16 -327 4 -3 9 -36 10 -73 2 -37 6 -67 9 -67 4 0 9 -17 12
-37 3 -21 9 -51 12 -68 4 -16 8 -41 10 -55 2 -14 4 -25 5 -25 1 0 4 -11 7 -25
6 -34 9 -42 18 -64 4 -10 8 -31 9 -46 1 -15 4 -26 9 -23 6 4 11 -21 10 -54 -1
-7 3 -13 8 -13 5 0 9 -6 9 -14 0 -8 9 -36 21 -62 11 -27 21 -60 22 -75 1 -15
5 -25 8 -23 4 2 10 -3 13 -12 4 -10 2 -13 -7 -8 -6 4 -5 -1 4 -12 28 -34 39
-70 26 -83 -9 -9 -8 -10 7 -5 13 5 17 4 12 -4 -4 -7 -2 -12 3 -12 6 0 11 -6
11 -12 0 -7 7 -26 15 -42 8 -15 12 -33 8 -40 -3 -6 -3 -8 2 -4 11 10 68 -100
59 -114 -5 -7 -3 -8 6 -3 10 6 12 4 7 -9 -4 -10 -3 -15 3 -11 5 3 14 -4 20
-15 6 -11 7 -20 3 -20 -4 0 0 -5 10 -11 9 -6 15 -14 12 -20 -4 -5 -1 -9 4 -9
6 0 11 -7 11 -15 0 -8 5 -15 12 -15 6 0 9 -3 5 -6 -3 -3 3 -15 14 -27 10 -11
19 -27 19 -34 0 -7 5 -13 11 -13 5 0 8 -4 5 -9 -4 -5 -3 -11 2 -13 4 -1 23
-25 42 -53 19 -27 37 -52 40 -55 22 -20 68 -95 64 -102 -3 -5 -1 -7 4 -6 14 4
53 -43 45 -55 -3 -6 -1 -7 5 -3 7 4 17 -3 24 -18 6 -14 18 -26 26 -26 9 0 12
-6 8 -17 -4 -10 -4 -14 0 -10 10 10 35 -13 27 -26 -3 -5 -2 -7 4 -4 10 6 43
-27 43 -44 0 -5 4 -8 9 -4 5 3 12 1 16 -5 3 -5 0 -10 -7 -10 -7 0 2 -8 20 -17
24 -11 32 -21 29 -34 -3 -12 0 -16 9 -12 7 2 37 -19 68 -49 70 -68 127 -118
136 -118 13 0 40 -37 33 -45 -5 -4 -3 -5 3 -2 17 10 56 -23 49 -42 -5 -12 -3
-13 6 -4 9 9 21 4 53 -19 22 -16 40 -34 39 -38 -1 -4 4 -11 13 -14 9 -4 13 -2
8 5 -4 7 7 1 24 -11 17 -13 29 -27 26 -31 -3 -5 2 -6 10 -3 11 4 16 0 16 -12
0 -16 2 -17 10 -4 6 10 10 11 10 3 0 -7 5 -13 11 -13 6 0 30 -13 53 -28 22
-15 49 -31 59 -35 10 -4 16 -11 13 -16 -3 -5 2 -7 12 -5 9 3 27 -4 39 -15 12
-12 27 -21 33 -21 6 0 52 -21 103 -46 50 -26 103 -50 117 -54 14 -4 24 -13 22
-19 -1 -7 2 -9 8 -6 13 8 67 -12 94 -34 12 -10 17 -11 12 -3 -6 10 0 9 23 -2
17 -9 33 -16 36 -15 17 3 64 -14 60 -22 -4 -5 1 -6 9 -3 9 3 16 2 16 -2 0 -5
17 -10 37 -12 20 -1 40 -8 44 -14 5 -7 11 -10 14 -6 4 4 30 -1 58 -9 29 -9 60
-16 70 -15 15 1 16 -2 7 -13 -8 -10 -8 -15 1 -21 8 -4 9 -3 5 4 -4 7 -4 13 1
13 39 6 55 4 63 -10 6 -11 9 -12 10 -3 0 9 7 11 23 6 12 -4 30 -7 40 -6 9 0
16 -2 13 -6 -2 -4 15 -7 37 -8 23 0 56 -4 72 -7 17 -3 54 -7 82 -9 29 -2 53
-6 53 -9 0 -3 20 -4 45 -3 33 2 44 0 38 -9 -4 -7 0 -6 10 2 16 13 22 8 17 -14
-1 -5 2 -7 6 -3 4 4 14 2 23 -4 13 -10 14 -10 4 2 -21 23 -15 26 42 20 36 -4
55 -2 56 4 0 6 4 2 9 -9 5 -11 9 -14 9 -7 1 18 62 15 91 -5 14 -9 19 -10 13
-3 -21 23 -15 35 7 15 20 -18 21 -18 14 1 -7 17 -6 17 9 5 13 -10 17 -10 17
-1 0 9 4 9 17 -1 9 -8 14 -9 10 -3 -4 7 5 11 23 12 17 0 30 -4 30 -9 0 -6 -4
-8 -8 -5 -5 3 -9 -1 -9 -9 0 -10 4 -12 12 -5 7 5 15 7 19 3 4 -4 4 1 0 12 -4
11 -4 17 0 13 5 -4 19 -2 33 3 30 11 49 3 34 -15 -8 -9 -7 -13 3 -13 9 0 13 8
10 20 -3 16 1 19 31 15 19 -2 35 -1 35 3 0 4 16 6 35 5 19 -1 36 2 37 6 2 4
30 9 64 11 33 2 66 7 72 11 7 4 16 4 22 1 6 -3 10 -1 10 6 0 8 5 7 17 -2 9 -8
14 -9 10 -3 -4 7 2 14 13 17 18 5 25 -4 21 -26 -1 -5 3 -6 8 -3 5 3 7 16 4 29
-4 18 -3 19 6 7 6 -8 11 -10 11 -4 0 6 11 10 25 9 14 -2 25 1 25 6 0 6 5 7 10
4 6 -3 10 -1 10 4 0 6 5 11 11 11 5 0 7 -6 3 -13 -5 -9 -4 -9 6 0 7 6 19 9 28
6 10 -4 13 -2 8 5 -5 8 0 13 13 13 12 1 27 2 34 3 6 1 14 3 17 6 3 3 20 10 38
17 31 11 33 11 28 -10 -4 -13 0 -10 9 8 8 17 14 27 15 23 0 -4 15 -1 34 7 18
8 36 11 40 8 3 -4 6 -1 6 5 0 7 11 12 25 12 14 0 25 3 25 8 0 6 53 28 88 36 8
1 17 8 21 15 5 7 11 13 14 12 4 0 24 7 44 16 21 9 44 16 51 16 6 0 12 5 12 10
0 5 7 6 16 3 8 -3 13 -2 10 2 -2 4 18 20 46 35 27 15 46 22 42 15 -4 -7 5 -1
21 15 26 25 38 31 50 25 2 -2 10 6 18 16 10 13 16 15 21 8 9 -15 26 -16 26 -1
0 5 -4 7 -10 4 -5 -3 -10 -1 -10 4 0 6 7 11 15 11 8 0 15 5 15 11 0 6 7 9 15
5 10 -3 15 1 15 11 0 9 3 14 6 10 3 -3 15 3 27 14 23 21 42 26 31 7 -4 -7 -3
-8 5 -4 6 4 9 10 7 14 -5 9 20 32 28 25 3 -4 6 -1 6 7 0 10 3 10 14 1 11 -9
16 -9 22 0 4 8 3 9 -4 5 -7 -4 -12 -1 -12 9 0 12 6 15 23 10 17 -5 18 -4 7 4
-12 9 -12 11 2 16 9 4 23 8 32 9 8 1 19 6 23 11 4 4 2 5 -4 1 -30 -17 -9 11
24 34 21 14 46 33 56 43 10 10 22 15 28 12 5 -4 8 -3 7 2 -5 14 45 64 59 59 7
-3 12 0 10 7 -1 7 5 11 13 9 8 -2 12 0 8 4 -11 10 12 35 25 27 6 -3 7 -1 3 6
-4 6 1 14 13 19 11 4 21 12 23 17 2 6 8 9 15 9 6 -1 9 5 6 14 -4 10 -2 13 5 8
7 -4 12 -2 12 6 0 17 61 74 74 70 6 -2 8 0 4 4 -4 4 6 24 23 46 27 33 33 37
48 26 14 -11 14 -11 3 4 -11 14 -10 19 10 32 12 9 18 16 13 16 -6 0 -6 3 0 8
6 4 26 27 44 52 19 25 46 56 60 69 14 13 19 20 11 15 -13 -7 -13 -5 -1 9 7 9
17 14 22 11 5 -3 6 1 3 9 -3 8 2 17 11 21 9 3 14 10 11 15 -9 13 21 34 36 25
10 -6 11 -5 1 7 -10 13 -10 19 3 35 8 10 12 13 8 5 -4 -9 -3 -12 4 -7 6 4 9
13 5 21 -3 10 1 15 12 15 9 0 14 4 10 9 -7 12 50 109 79 134 12 10 15 16 9 12
-18 -9 -16 -3 10 44 19 33 26 38 37 28 12 -10 12 -9 2 4 -10 13 -10 23 -1 43
7 14 17 26 22 26 6 0 8 3 4 6 -8 8 21 65 42 82 9 8 10 11 4 7 -18 -9 -16 10 2
29 9 8 15 17 13 18 -6 9 37 106 45 101 6 -3 7 -1 3 6 -9 14 2 53 14 46 4 -3 6
4 3 15 -3 11 -1 20 5 20 5 0 9 6 8 13 -2 20 38 147 47 147 4 0 5 5 2 10 -3 6
-3 16 2 23 4 6 8 17 8 22 2 33 18 94 23 91 4 -2 8 8 8 22 2 38 15 115 20 123
2 4 6 29 9 56 3 26 7 59 10 72 5 28 13 101 21 191 12 138 6 442 -11 570 -3 19
-7 60 -10 90 -4 30 -10 71 -15 90 -5 20 -12 51 -14 70 -2 19 -18 90 -35 157
-132 523 -402 999 -786 1387 -110 111 -241 226 -345 301 -30 21 -57 42 -60 45
-12 14 -204 132 -295 183 -254 140 -622 272 -882 317 -35 5 -75 12 -90 15 -16
3 -50 8 -78 11 -27 3 -56 7 -62 9 -22 7 -389 24 -396 19z m43 -211 c1 6 8 1
16 -13 9 -15 13 -17 10 -6 -5 15 -2 17 14 13 11 -3 23 -1 26 5 3 5 14 2 25 -8
11 -9 22 -14 26 -11 3 4 1 7 -6 7 -7 0 -10 4 -7 9 3 5 15 7 26 4 18 -5 25 -15
21 -36 -1 -5 3 -6 8 -2 6 3 8 11 5 19 -6 15 57 17 68 1 5 -6 8 -5 8 3 0 7 5
10 11 7 6 -4 8 -14 5 -24 -4 -11 -2 -10 9 4 13 17 18 18 36 7 12 -8 18 -9 14
-3 -3 6 -1 11 4 11 6 0 11 -6 12 -12 0 -10 2 -10 6 0 2 6 10 9 16 5 6 -3 22
-7 36 -9 69 -6 138 -17 154 -26 9 -5 22 -6 27 -3 6 3 16 3 23 -2 6 -4 21 -9
32 -10 44 -6 65 -14 65 -24 0 -6 -6 -7 -12 -3 -7 4 -9 3 -5 -1 12 -14 36 -14
31 0 -4 9 2 11 20 8 14 -3 24 -9 21 -13 -2 -4 7 -6 20 -4 23 2 30 -6 26 -29
-1 -5 3 -6 9 -2 6 3 8 11 5 16 -4 5 1 9 10 9 9 0 14 -4 11 -8 -3 -5 8 -9 24
-10 34 -1 53 -10 45 -21 -2 -5 7 -6 20 -3 14 2 25 0 25 -6 0 -6 9 -9 20 -7 10
2 31 -6 47 -18 15 -12 24 -16 20 -9 -5 6 29 -4 75 -24 120 -51 133 -59 130
-74 -3 -11 0 -11 12 -1 9 7 17 8 20 2 3 -5 3 -11 -1 -14 -5 -2 -2 -2 4 -1 13
3 83 -23 83 -31 0 -2 -9 -2 -20 0 -11 2 -20 0 -20 -6 0 -5 14 -7 30 -4 17 3
30 1 30 -5 0 -5 3 -9 8 -8 16 4 52 -14 52 -27 0 -9 6 -12 17 -8 12 5 15 2 10
-10 -3 -9 -2 -19 4 -22 5 -4 9 -3 8 2 -3 20 2 25 16 13 8 -7 12 -16 9 -21 -3
-5 1 -6 8 -4 8 3 24 -4 36 -15 12 -11 22 -18 22 -15 0 5 100 -62 110 -74 3 -3
14 -11 25 -18 11 -6 19 -17 17 -25 -2 -7 0 -10 3 -6 10 10 47 -11 40 -22 -3
-6 1 -7 10 -4 12 5 16 2 13 -12 -2 -12 2 -18 12 -16 8 2 20 -5 27 -14 7 -10
13 -14 13 -9 0 5 16 -8 35 -29 19 -21 35 -35 35 -32 0 4 7 1 15 -8 8 -8 15
-20 15 -26 0 -6 5 -8 12 -4 8 5 9 2 5 -10 -4 -11 -3 -15 4 -11 9 6 70 -52 187
-179 19 -20 30 -36 26 -36 -3 0 5 -9 20 -21 14 -11 26 -25 26 -31 0 -6 8 -18
18 -27 32 -30 58 -65 42 -57 -8 4 -3 -2 13 -14 15 -12 25 -26 21 -31 -3 -5 0
-9 6 -9 6 0 14 -8 17 -17 4 -10 13 -24 21 -32 7 -7 11 -20 8 -27 -3 -7 0 -16
6 -20 7 -4 8 -3 4 4 -4 7 -3 12 1 12 5 0 14 -9 20 -19 10 -15 10 -21 0 -24 -7
-3 -4 -6 6 -6 9 -1 17 -6 17 -11 0 -6 10 -24 22 -41 19 -26 20 -31 8 -40 -13
-9 -12 -10 2 -5 13 4 24 -9 45 -52 15 -31 31 -58 36 -60 4 -2 7 -12 7 -23 0
-10 4 -19 8 -19 5 0 14 -18 21 -40 6 -22 16 -40 21 -40 6 0 10 -9 10 -19 0
-11 5 -23 11 -26 6 -4 8 -13 5 -21 -3 -8 -1 -14 4 -14 5 0 11 -10 15 -22 3
-13 10 -32 15 -43 28 -66 40 -108 34 -118 -4 -7 -3 -8 1 -4 10 9 48 -101 39
-114 -3 -5 0 -9 5 -9 6 0 11 -9 11 -21 0 -11 4 -28 9 -37 4 -9 11 -32 14 -50
5 -24 3 -31 -6 -27 -6 4 -4 0 5 -8 14 -11 15 -16 5 -27 -9 -10 -9 -11 1 -6 8
5 12 0 13 -13 1 -12 2 -24 4 -28 5 -21 16 -82 20 -113 2 -19 5 -35 6 -35 3 0
15 -111 25 -235 5 -64 5 -370 0 -400 -3 -14 -7 -52 -10 -85 -3 -33 -8 -69 -10
-80 -2 -11 -7 -40 -10 -65 -24 -175 -106 -465 -179 -635 -44 -101 -126 -264
-172 -341 -52 -86 -162 -252 -179 -270 -6 -6 -22 -26 -36 -44 -14 -19 -34 -44
-45 -56 -11 -13 -36 -42 -57 -66 -106 -125 -261 -268 -418 -387 -203 -153
-377 -252 -645 -366 -73 -32 -250 -89 -359 -116 -107 -27 -157 -38 -266 -55
-19 -3 -46 -7 -60 -10 -141 -24 -634 -24 -730 1 -8 2 -37 6 -65 10 -226 28
-536 123 -782 240 -619 294 -1118 813 -1383 1440 -58 136 -125 332 -134 390
-2 11 -6 27 -9 35 -7 20 -24 96 -32 140 -3 19 -8 42 -10 50 -2 8 -7 42 -11 75
-3 33 -7 62 -9 65 -2 3 -7 44 -10 90 -4 46 -9 88 -11 92 -3 4 1 8 8 8 8 0 9 3
2 8 -12 8 -13 250 -1 269 4 6 3 14 -2 18 -5 3 -8 15 -5 28 2 12 7 49 10 82 5
62 10 100 13 100 1 0 4 33 6 74 3 41 10 80 15 86 6 7 7 21 3 30 -5 14 -3 16 7
10 8 -5 11 -4 6 3 -9 15 4 93 15 86 5 -3 6 2 3 11 -9 22 16 106 29 98 6 -3 7
-1 3 6 -11 18 3 72 17 64 7 -3 9 -3 5 2 -4 4 -2 15 5 23 10 13 9 14 -2 7 -11
-6 -13 -4 -7 11 4 10 21 57 37 103 16 46 33 89 39 96 5 6 6 16 2 20 -4 5 2 5
13 1 15 -6 17 -4 8 5 -12 12 1 57 22 71 5 4 10 13 11 20 3 34 5 39 14 33 5 -3
8 0 5 7 -2 7 7 33 20 58 13 25 33 65 46 90 12 25 27 48 33 52 6 4 11 13 11 20
1 7 7 12 14 10 7 -1 10 2 6 8 -7 11 24 70 37 70 4 0 8 6 8 13 0 21 126 188
135 180 4 -5 6 0 2 9 -7 20 16 31 34 15 9 -8 9 -6 -1 7 -12 16 -12 20 3 31 9
6 14 15 10 19 -4 4 3 9 15 13 12 3 20 9 17 13 -3 5 5 16 17 25 13 8 23 19 23
23 0 15 60 72 75 72 13 0 13 1 0 10 -13 9 -13 10 0 11 8 1 22 1 30 0 13 -2 13
-1 1 8 -12 8 -11 13 10 30 13 11 31 21 39 21 12 0 12 2 2 9 -11 6 -10 10 5 16
10 5 22 7 26 6 5 -1 6 2 3 7 -7 12 47 59 66 56 10 -1 15 3 12 10 -6 16 22 40
35 31 7 -4 8 1 4 12 -3 10 -3 15 2 11 4 -4 17 4 28 18 10 14 26 23 33 20 8 -3
13 -1 11 5 -1 6 7 16 18 22 10 7 27 21 38 32 17 18 18 18 13 2 -3 -11 -2 -16
4 -12 6 3 10 12 10 19 0 13 71 66 89 66 5 0 11 7 15 15 3 8 12 15 19 15 8 0
20 7 27 15 15 18 44 20 34 3 -4 -8 -3 -10 2 -5 5 5 9 14 9 20 0 7 8 11 17 11
10 -1 16 3 15 10 -1 6 6 10 15 10 10 -1 16 2 13 6 -8 13 41 30 53 18 8 -8 9
-5 6 9 -5 17 -1 20 20 18 14 -2 24 0 23 3 -1 4 1 7 4 7 4 0 16 8 27 19 12 10
32 19 46 20 13 0 24 5 23 10 -1 6 7 12 17 14 14 3 17 0 13 -13 -4 -10 -3 -14
4 -10 6 4 8 13 5 21 -5 13 6 18 27 15 4 0 7 4 7 9 0 6 5 10 11 10 5 0 7 -6 3
-12 -4 -7 3 -3 15 10 20 20 35 27 44 20 2 -2 11 3 20 11 16 12 22 8 18 -12 -1
-5 3 -6 8 -2 6 3 8 12 4 21 -3 8 -2 14 3 13 5 -1 17 1 27 6 10 4 21 5 24 1 3
-3 12 2 19 12 11 15 16 15 34 4 12 -8 19 -9 16 -4 -3 5 2 16 11 23 20 18 19
18 38 -6 11 -15 14 -16 9 -3 -4 13 3 21 28 31 29 12 35 12 46 -2 10 -14 11
-13 5 4 -6 18 -5 18 10 6 16 -12 17 -12 11 5 -4 10 -4 16 0 13 4 -4 26 -1 49
6 23 7 56 12 74 11 17 -1 29 2 26 7 -2 4 3 7 12 7 11 0 15 -5 11 -16 -3 -8 -2
-12 4 -9 6 3 10 13 10 21 0 8 4 13 9 9 5 -3 13 0 16 5 5 7 12 5 22 -7 8 -10
12 -13 9 -6 -9 17 32 27 50 12 12 -10 13 -9 9 3 -5 12 0 15 25 13 16 -1 33 2
36 7 3 5 13 3 22 -4 12 -10 14 -10 8 0 -4 6 -2 12 3 12 6 0 11 -4 11 -10 0 -5
5 -10 11 -10 5 0 8 4 5 9 -3 5 12 9 34 9 22 0 45 4 50 7 6 4 18 1 27 -7 10 -7
14 -8 10 -1 -5 8 7 11 43 10 27 0 53 2 56 6 3 3 17 2 30 -3 17 -7 24 -6 24 3z"/>
<path d="M2693 5905 c0 -8 4 -12 9 -9 5 3 6 10 3 15 -9 13 -12 11 -12 -6z"/>
<path d="M3430 5901 c0 -6 4 -13 10 -16 6 -3 7 1 4 9 -7 18 -14 21 -14 7z"/>
<path d="M3620 5906 c0 -2 8 -10 18 -17 15 -13 16 -12 3 4 -13 16 -21 21 -21
13z"/>
<path d="M3693 5885 c0 -8 4 -12 9 -9 5 3 6 10 3 15 -9 13 -12 11 -12 -6z"/>
<path d="M2506 5882 c-3 -5 1 -9 9 -9 8 0 12 4 9 9 -3 4 -7 8 -9 8 -2 0 -6 -4
-9 -8z"/>
<path d="M2470 5871 c0 -6 4 -12 8 -15 5 -3 9 1 9 9 0 8 -4 15 -9 15 -4 0 -8
-4 -8 -9z"/>
<path d="M2353 5825 c0 -8 4 -12 9 -9 5 3 6 10 3 15 -9 13 -12 11 -12 -6z"/>
<path d="M3960 5826 c0 -2 8 -10 18 -17 15 -13 16 -12 3 4 -13 16 -21 21 -21
13z"/>
<path d="M2226 5802 c-3 -5 1 -9 9 -9 8 0 12 4 9 9 -3 4 -7 8 -9 8 -2 0 -6 -4
-9 -8z"/>
<path d="M4256 5707 c3 -8 11 -14 19 -14 20 0 19 4 -5 17 -15 8 -18 8 -14 -3z"/>
<path d="M1610 5499 c0 -5 5 -7 10 -4 6 3 10 8 10 11 0 2 -4 4 -10 4 -5 0 -10
-5 -10 -11z"/>
<path d="M1555 5460 c-3 -5 -1 -10 4 -10 6 0 11 5 11 10 0 6 -2 10 -4 10 -3 0
-8 -4 -11 -10z"/>
<path d="M4537 5378 c-23 -46 -51 -80 -115 -138 -29 -26 -114 -67 -176 -85
-97 -28 -97 -28 -471 -26 -82 0 -168 -1 -190 -4 -98 -11 -130 -17 -141 -26 -8
-7 -14 -6 -19 1 -3 6 -12 7 -18 3 -7 -4 -16 -8 -22 -9 -30 -6 -117 -40 -165
-65 -92 -49 -154 -120 -169 -193 l-6 -29 -20 39 c-11 22 -23 41 -27 42 -5 2
-8 8 -8 12 0 10 -80 90 -90 90 -4 0 -17 9 -30 20 -27 23 -169 80 -207 82 -16
1 -33 5 -39 10 -6 4 -36 9 -66 11 -31 3 -59 6 -64 9 -10 5 -242 2 -394 -5
-199 -10 -361 44 -475 158 -72 72 -92 97 -97 121 -5 26 -23 27 -27 2 -7 -47
-6 -295 1 -343 35 -234 186 -502 348 -618 25 -18 228 -151 265 -174 70 -43
337 -193 344 -193 5 0 14 -7 21 -15 7 -9 15 -13 18 -11 3 3 17 -3 32 -14 16
-11 33 -20 38 -20 6 0 12 -6 15 -12 4 -14 -62 -50 -75 -42 -5 3 -8 0 -8 -7 0
-7 -3 -10 -6 -6 -6 5 -59 -11 -109 -34 -11 -5 -40 -15 -65 -22 l-45 -13 84
-79 c168 -160 184 -175 180 -179 -2 -2 -76 -29 -164 -60 -88 -31 -167 -59
-175 -63 -8 -3 -17 -7 -20 -8 -56 -16 -128 -42 -136 -50 -8 -6 0 -20 27 -45
76 -70 245 -228 273 -253 27 -25 30 -26 62 -12 19 8 37 14 39 14 10 -1 170 52
188 62 10 5 22 7 27 4 6 -4 10 -1 10 5 0 6 4 9 8 6 5 -3 20 1 35 9 15 8 27 12
27 10 0 -2 16 3 35 11 19 8 35 11 35 8 0 -4 6 -1 13 5 8 6 23 12 35 14 12 2
25 6 28 10 13 12 28 7 59 -18 33 -28 134 -118 169 -150 12 -11 38 -34 58 -52
l37 -32 178 61 c98 33 185 62 193 63 8 2 17 4 20 5 3 1 8 2 13 1 4 0 7 4 7 11
0 6 3 9 6 5 4 -3 35 5 70 18 35 13 64 22 64 19 0 -2 10 2 23 11 13 8 27 12 32
8 4 -5 5 -2 0 6 -4 7 -26 30 -48 50 -23 20 -48 44 -56 55 -22 25 -29 32 -100
100 -69 65 -69 65 14 92 28 8 59 19 70 24 33 13 128 45 150 50 6 1 25 8 43 15
17 8 32 11 32 8 0 -3 6 0 14 6 13 11 46 22 74 23 6 1 12 5 12 9 0 4 10 9 22
11 25 3 33 -5 -94 113 -212 197 -246 222 -263 195 -3 -6 -15 -10 -25 -10 -11
0 -34 -6 -52 -14 -27 -12 -97 -34 -258 -82 -8 -2 -4 5 10 17 14 11 36 30 50
42 76 65 336 237 358 237 6 0 12 4 14 9 2 5 77 46 168 91 238 119 234 116 334
210 141 133 252 340 271 507 2 18 6 36 8 40 7 11 18 145 19 213 0 53 -11 172
-17 178 -1 1 -14 -21 -28 -50z m-2791 -395 c16 -6 38 -14 49 -19 11 -4 29 -9
40 -11 11 -2 38 -9 60 -15 22 -6 51 -12 65 -13 14 -1 48 -5 75 -9 28 -4 66 -8
87 -10 20 -2 42 -7 49 -11 8 -5 10 -4 5 3 -5 9 -1 10 16 3 21 -7 269 -7 378 1
25 2 48 -1 52 -7 5 -6 8 -6 8 2 0 7 10 10 28 6 15 -3 39 -6 55 -7 15 0 27 -4
27 -7 0 -3 11 -5 25 -4 14 2 25 -1 25 -6 0 -5 8 -9 18 -9 22 0 91 -37 131 -71
32 -26 77 -88 91 -124 8 -18 9 -18 19 10 6 17 12 35 12 40 1 15 84 92 116 109
34 17 124 45 178 54 56 9 294 8 390 -3 87 -9 116 -9 215 -1 71 6 84 8 150 26
25 7 50 13 55 15 6 1 24 8 40 14 17 7 35 14 40 15 6 1 28 10 50 20 22 9 42 16
44 16 2 -1 7 2 10 7 3 5 18 16 34 26 23 15 27 15 27 2 0 -8 -5 -15 -10 -15 -6
0 -9 -3 -8 -7 4 -10 -41 -82 -64 -105 -10 -10 -18 -22 -18 -27 0 -9 -181 -195
-216 -221 -10 -8 -33 -26 -50 -40 -17 -14 -44 -34 -59 -45 -16 -11 -34 -26
-42 -33 -7 -7 -13 -10 -13 -5 0 4 -4 4 -8 -2 -11 -15 -162 -100 -189 -107 -5
-1 -12 -6 -18 -10 -27 -21 -118 -78 -126 -78 -5 0 -9 -4 -9 -8 0 -4 -14 -16
-31 -26 -30 -18 -166 -148 -204 -196 -20 -25 -57 -80 -88 -131 -24 -40 -63
-140 -75 -195 -24 -102 -23 -123 2 -88 10 13 21 7 80 -48 38 -35 75 -67 82
-71 19 -11 17 -24 -3 -30 -10 -3 -105 -37 -211 -76 -106 -39 -195 -71 -197
-71 -2 0 -12 8 -22 18 -14 14 -159 134 -193 160 -7 5 23 21 32 16 4 -3 8 -2 8
3 0 4 31 21 70 37 l69 30 -5 45 c-3 25 -7 60 -8 76 -11 97 -37 160 -108 257
-102 139 -325 314 -563 443 -63 34 -171 104 -211 137 -30 26 -180 174 -204
203 -58 69 -90 114 -90 124 0 6 -4 11 -9 11 -5 0 -14 14 -21 30 -7 17 -16 30
-21 30 -5 0 -9 7 -9 15 0 11 8 9 34 -9 19 -12 47 -28 62 -33z m2009 -1115 c33
-29 72 -64 85 -77 14 -12 35 -30 48 -39 18 -11 20 -17 10 -23 -18 -12 -141
-54 -150 -51 -5 1 -8 -2 -8 -8 0 -5 -3 -9 -7 -8 -14 3 -98 -26 -105 -37 -4 -5
-8 -7 -8 -4 0 4 -29 -4 -65 -16 -60 -21 -105 -23 -105 -6 0 4 -30 32 -67 62
-77 62 -113 94 -113 101 0 3 26 13 58 24 31 10 60 23 64 29 4 5 8 6 8 2 0 -5
6 -5 13 0 6 4 17 8 22 9 6 1 47 15 92 32 45 17 84 28 87 24 3 -3 6 1 6 8 0 7
3 11 6 8 3 -4 17 0 32 8 15 8 29 14 32 14 3 0 32 -24 65 -52z m-1011 -11 c85
-88 108 -119 99 -128 -7 -7 -149 -62 -193 -75 -8 -2 -41 20 -75 52 -33 30 -77
70 -99 89 l-38 33 38 13 c22 7 44 14 49 15 6 2 39 14 75 28 36 14 71 25 79 25
8 1 37 -23 65 -52z m-29 -392 c104 -89 120 -104 114 -110 -3 -2 -84 -32 -180
-65 -96 -33 -181 -63 -189 -67 -8 -3 -17 -7 -20 -7 -3 -1 -10 -5 -17 -9 -6 -4
-17 -2 -25 5 -7 7 -40 35 -73 62 -33 28 -67 56 -75 63 -8 8 -25 22 -38 32
l-23 19 56 21 c31 12 58 21 60 21 2 0 16 5 32 12 15 6 33 12 38 14 51 14 172
61 177 69 4 6 8 6 8 2 0 -4 12 -1 28 7 21 11 30 12 42 2 8 -6 47 -39 85 -71z
m790 -40 c38 -34 127 -109 140 -119 15 -11 15 -13 1 -25 -9 -8 -16 -10 -16 -6
0 4 -6 2 -14 -4 -8 -7 -22 -14 -32 -16 -29 -6 -277 -93 -294 -104 -28 -16 -78
-4 -108 25 -16 16 -59 54 -96 84 -58 47 -64 55 -49 64 10 6 20 11 23 11 11 2
86 28 95 34 6 3 15 6 20 7 11 2 116 40 150 54 11 4 43 17 70 28 l50 19 25 -21
c13 -11 29 -25 35 -31z"/>
<path d="M5153 5085 c0 -8 4 -12 9 -9 5 3 6 10 3 15 -9 13 -12 11 -12 -6z"/>
<path d="M5293 4915 c0 -8 4 -12 9 -9 5 3 6 10 3 15 -9 13 -12 11 -12 -6z"/>
<path d="M2436 2980 c-109 -55 -154 -164 -107 -265 61 -132 237 -166 348 -68
34 30 64 97 65 145 3 147 -173 254 -306 188z"/>
<path d="M3240 2660 l-175 -128 -5 -88 -5 -89 -97 0 -98 0 0 -170 0 -171 95 0
c52 0 97 -3 100 -5 2 -3 5 -115 5 -250 1 -134 6 -266 12 -294 50 -245 279
-422 582 -450 61 -6 76 -5 77 6 1 20 1 321 0 340 -1 13 -16 18 -63 23 -110 13
-194 64 -225 137 -17 41 -18 489 -1 490 7 1 76 2 153 3 l140 1 0 170 0 170
-150 0 -150 0 -3 218 c-1 119 -6 217 -10 216 -4 0 -86 -58 -182 -129z"/>
<path d="M4469 2378 c-159 -14 -294 -80 -414 -202 -160 -161 -227 -379 -185
-605 60 -329 376 -571 726 -557 118 5 209 28 323 83 74 35 108 59 163 114 l70
70 -54 42 c-30 23 -70 53 -88 67 -18 14 -60 46 -94 72 l-61 47 -40 -39 c-53
-51 -124 -82 -206 -88 -69 -5 -139 3 -138 16 0 4 162 122 360 262 409 291 378
252 307 377 -90 159 -254 280 -439 326 -81 21 -135 24 -230 15z m201 -398 c23
-12 40 -25 38 -30 -2 -5 -106 -83 -233 -173 -146 -104 -233 -160 -237 -153 -4
6 -6 42 -4 81 7 160 109 281 257 303 65 9 124 0 179 -28z"/>
<path d="M870 2351 c0 -4 155 -304 211 -408 15 -28 60 -114 100 -190 39 -76
75 -142 79 -148 4 -5 49 -91 100 -190 51 -99 113 -215 137 -259 23 -43 43 -81
43 -85 0 -3 9 -19 20 -35 l19 -30 10 25 c5 13 60 128 121 254 62 127 141 289
175 360 89 185 223 461 287 593 31 61 53 113 49 113 -20 4 -344 3 -350 -1 -3
-3 -53 -111 -111 -240 -57 -129 -119 -269 -138 -310 l-34 -75 -158 315 -157
315 -202 0 c-110 0 -201 -1 -201 -4z"/>
<path d="M2344 2351 c-2 -2 -4 -298 -4 -658 l0 -653 185 0 185 0 0 658 0 657
-181 0 c-99 0 -182 -2 -185 -4z"/>
<path d="M5745 1580 c-3 -6 1 -7 9 -4 18 7 21 14 7 14 -6 0 -13 -4 -16 -10z"/>
<path d="M5136 855 c-9 -26 -7 -32 5 -12 6 10 9 21 6 23 -2 3 -7 -2 -11 -11z"/>
<path d="M4573 455 c0 -8 4 -12 9 -9 5 3 6 10 3 15 -9 13 -12 11 -12 -6z"/>
<path d="M1744 422 c23 -26 23 -26 23 -7 0 8 -3 13 -5 10 -3 -3 -12 1 -21 7
-10 8 -9 4 3 -10z"/>
<path d="M1795 401 c-3 -5 -2 -12 3 -15 5 -3 9 1 9 9 0 17 -3 19 -12 6z"/>
<path d="M4400 380 c-12 -7 -10 -9 7 -7 12 0 19 5 17 9 -6 10 -6 10 -24 -2z"/>
<path d="M4307 319 c7 -7 15 -10 18 -7 3 3 -2 9 -12 12 -14 6 -15 5 -6 -5z"/>
<path d="M4275 309 c-4 -6 -5 -12 -2 -15 2 -3 7 2 10 11 7 17 1 20 -8 4z"/>
<path d="M2050 281 c0 -6 4 -13 10 -16 6 -3 7 1 4 9 -7 18 -14 21 -14 7z"/>
<path d="M2168 253 c6 -2 9 -10 6 -15 -4 -7 -2 -8 5 -4 13 9 5 26 -12 25 -9 0
-8 -2 1 -6z"/>
<path d="M2370 196 c0 -2 8 -10 18 -17 15 -13 16 -12 3 4 -13 16 -21 21 -21
13z"/>
<path d="M3639 133 c-12 -16 -12 -17 2 -6 9 7 20 9 24 5 5 -4 5 -1 1 6 -9 16
-11 15 -27 -5z"/>
<path d="M2675 130 c-3 -5 -1 -10 4 -10 6 0 11 5 11 10 0 6 -2 10 -4 10 -3 0
-8 -4 -11 -10z"/>
<path d="M3535 120 c-3 -5 -1 -10 4 -10 6 0 11 5 11 10 0 6 -2 10 -4 10 -3 0
-8 -4 -11 -10z"/>
<path d="M2813 105 c0 -8 4 -12 9 -9 5 3 6 10 3 15 -9 13 -12 11 -12 -6z"/>
<path d="M3135 91 c-3 -5 -2 -12 3 -15 5 -3 9 1 9 9 0 17 -3 19 -12 6z"/>
</g>
</svg>
